<?xml version="1.0" encoding="utf-8"?>
<!-- Generator: Adobe Illustrator 25.2.1, SVG Export Plug-In . SVG Version: 6.00 Build 0)  -->
<svg version="1.1" id="Layer_1" xmlns="http://www.w3.org/2000/svg" xmlns:xlink="http://www.w3.org/1999/xlink" x="0px" y="0px"
	 viewBox="0 0 512 774.2" style="enable-background:new 0 0 512 774.2;" xml:space="preserve">
<style type="text/css">
	.st0{fill:#FFFFFF;}
</style>
<g>
</g>
<g>
</g>
<g>
</g>
<g>
</g>
<g>
</g>
<g>
</g>
<g>
</g>
<g>
</g>
<g>
</g>
<g>
</g>
<g>
</g>
<g>
</g>
<g>
</g>
<g>
</g>
<g>
</g>
<g>
</g>
<g>
</g>
<g>
</g>
<g>
</g>
<g>
</g>
<g>
</g>
<g>
</g>
<g>
</g>
<g>
</g>
<g>
</g>
<g>
</g>
<g>
</g>
<g>
</g>
<g>
</g>
<path class="st0" d="M256.2,0c-83,0-150.6,67.6-150.6,150.6v210.8c0,83,67.6,150.6,150.6,150.6s150.6-67.6,150.6-150.6V150.6
	C406.8,67.6,339.2,0,256.2,0z M376,361.4c0,66.1-53.8,119.9-119.9,119.9s-119.9-53.8-119.9-119.9V150.6
	c0-66.1,53.8-119.9,119.9-119.9S376,84.5,376,150.6V361.4z"/>
<path class="st0" d="M256.2,101.9c-8.5,0-15.4,6.9-15.4,15.4v70.7c0,8.5,6.9,15.4,15.4,15.4c8.5,0,15.4-6.9,15.4-15.4v-70.7
	C271.5,108.7,264.6,101.9,256.2,101.9z"/>
<g>
	<g>
		<path class="st0" d="M265.2,729.3l160.2-160.7c5.2-5.3,5.2-13.8,0-19c-5.3-5.3-13.8-5.2-19,0L255.7,700.7L105,549.6
			c-5.3-5.3-13.8-5.3-19,0c-2.6,2.6-4,6.1-4,9.5c0,3.4,1.3,6.9,3.9,9.5l160.2,160.7c2.5,2.5,6,4,9.5,4S262.7,731.8,265.2,729.3z"/>
	</g>
</g>
<g>
</g>
</svg>
